<svg width="1000" height="250" xmlns="http://www.w3.org/2000/svg" xmlns:xlink="http://www.w3.org/1999/xlink">
 <!-- Created with Method Draw - http://github.com/duopixel/Method-Draw/ -->

 <g>
  <title>background</title>
  <rect fill="none" id="canvas_background" height="252" width="1002" y="-1" x="-1"/>
  <g display="none" overflow="visible" y="0" x="0" height="100%" width="100%" id="canvasGrid">
   <rect fill="url(#gridpattern)" stroke-width="0" y="0" x="0" height="100%" width="100%"/>
  </g>
 </g>
 <g>
  <title>Layer 1</title>
  <defs>
   <path d="m40,437q-19,0 -19,8q0,5 16,56t34,101l17,49q5,18 13,26l468,0l90,0q32,0 38,-1t7,-9q0,-6 -17,-114t-19,-109q0,-7 -19,-7q-9,0 -12,0t-6,5l-2,3q0,6 6,45t6,61q0,35 -13,53t-55,25q-5,1 -58,2q-46,0 -58,-1t-18,-8q-1,-1 -71,-279t-70,-283q0,-12 88,-14q32,0 41,-1t9,-9q0,-5 -3,-14q-4,-18 -9,-21l-2,-1q-3,0 -7,0q-5,0 -52,1t-135,1q-129,0 -164,-2l-15,0q-6,6 -6,9t2,18q4,13 10,19l28,0l11,0q80,0 95,9q1,1 2,1q5,3 10,20t40,157q17,68 28,111q70,275 70,281q0,5 -29,5l-31,0q-67,0 -88,-6q-45,-10 -70,-41t-54,-116q-7,-22 -10,-26t-14,-4l-3,0z" id="svg_34"/>
   <path d="m137,683q1,0 72,5t73,6q12,0 12,-9q0,-11 -36,-151q-38,-148 -38,-151q0,-2 7,5q61,54 130,54q54,0 87,-27t34,-79q0,-51 -38,-158t-38,-128q1,-14 5,-19t15,-5q28,0 52,30t39,82q3,11 6,13t16,2q20,0 20,-8q0,-1 -4,-15q-16,-59 -51,-97q-34,-43 -81,-43l-5,0q-47,0 -68,27t-21,57q0,16 36,118t37,153q0,59 -44,59l-5,0q-83,0 -144,-98l-7,-13l-34,-135q-32,-130 -37,-142q-13,-27 -44,-27q-14,0 -24,9t-11,18q0,14 73,304l74,296q0,13 -7,16t-39,5l-21,0q-6,6 -6,8t2,19q5,19 13,19z" id="svg_19"/>
   <path d="m184,600q0,24 19,42t44,19q18,0 30,-12t13,-30q0,-23 -20,-42t-44,-20q-15,0 -28,10t-14,33zm-163,-313q0,8 9,31t24,51t44,51t60,22q39,0 65,-23t27,-62q0,-17 -14,-56t-40,-105t-42,-113q-5,-22 -5,-32q0,-25 17,-25q9,0 19,3t23,14t27,35t25,59q3,12 5,14t17,2q20,0 20,-10q0,-8 -9,-31t-25,-51t-45,-50t-62,-22q-32,0 -59,21t-28,64q0,17 5,32t43,114q38,101 44,121t7,39q0,24 -17,24l-2,0q-30,0 -55,-33t-38,-84q-1,-1 -2,-3t-1,-3t-2,-2t-3,-1t-4,0t-8,0l-14,0q-6,6 -6,9z" id="svg_25"/>
   <path d="m131,289q0,32 16,65t56,61t97,27q62,0 90,-27t29,-60q0,-32 -17,-47t-38,-16q-13,0 -24,8t-12,26q0,16 9,28t17,18t13,6q1,0 1,1q0,3 -7,9t-25,11t-39,6q-48,0 -70,-26t-23,-53q0,-25 19,-35t55,-17t52,-15q66,-29 66,-96q0,-28 -11,-56t-33,-56t-63,-44t-94,-17q-77,0 -109,29t-33,68q0,39 21,56t44,17q15,0 28,-9t14,-31q0,-26 -18,-44t-31,-18q-2,-1 -3,-1t-1,-2q1,-3 8,-8t31,-13t55,-7q36,0 62,11t38,28t17,31t5,25q0,28 -21,42t-48,17t-59,15t-47,35q-17,25 -17,58z" id="svg_26"/>
   <path id="svg_24"/>
   <path d="m289,629q0,6 -57,8q-24,0 -31,1t-7,10q0,1 2,11q1,3 2,7t1,5t2,5t2,3t4,2t5,2t8,0t12,1q6,0 30,0t45,-1q79,0 91,0t16,-5q1,-4 37,-282l36,-279l23,37q24,36 64,100t88,140q175,279 177,281q1,1 3,3t4,3l6,2l96,0q17,0 40,0t29,1q34,0 34,-11q0,-5 -3,-17t-3,-13q-4,-6 -37,-6q-40,-1 -51,-3t-18,-11q-3,-5 -72,-283t-70,-281q0,-4 1,-5t7,-4t17,-2t33,-2l31,0q6,-9 6,-11q0,-16 -7,-30q-5,-5 -16,-5q-5,0 -41,1t-92,1q-61,0 -92,0t-35,-1q-17,0 -17,10q0,2 2,14q4,16 8,18t23,3q27,0 60,3q14,3 19,12q2,4 38,146t71,283t35,141l-194,-309q-196,-312 -201,-317q-2,-1 -4,-2q-5,-3 -16,-3q-15,0 -18,7q-2,4 -41,310l-39,307l-68,-270q-67,-266 -67,-275q6,-33 72,-33l10,0q6,-5 7,-9t-3,-18q-4,-16 -8,-18q-4,-1 -11,-1q-2,0 -12,0t-34,1t-64,1q-30,0 -62,-1t-37,-1q-15,0 -19,2t-4,9q0,2 3,14t5,15q2,6 22,6q70,0 89,40q4,6 69,268t66,275z" id="svg_23"/>
   <path d="m201,-11q-75,0 -121,49t-46,118q0,65 30,123t82,101q76,61 155,61q32,0 40,-1q13,-3 26,-7t35,-16t36,-30t26,-49t12,-70q0,-107 -86,-193t-189,-86zm-80,131q0,-50 26,-72t59,-22q44,0 83,32t62,84q9,21 23,74t14,92q0,44 -18,67q-24,30 -64,30q-63,0 -111,-58q-37,-44 -55,-117t-19,-110z" id="svg_22"/>
   <path d="m21,287q1,6 3,16t12,38t20,47t33,37t46,17q36,0 60,-18t30,-34t6,-21q0,-2 1,-2l11,11q61,64 139,64q54,0 87,-27t34,-79t-38,-157t-38,-127q0,-26 17,-26q6,0 9,1q29,5 52,38t35,80q2,8 20,8q20,0 20,-8q0,-1 -4,-15q-8,-29 -22,-57t-46,-56t-69,-27q-47,0 -68,27t-21,56q0,19 36,120t37,152q0,59 -44,59l-5,0q-86,0 -145,-101l-7,-12l-33,-134q-33,-131 -38,-141q-13,-27 -43,-27q-13,0 -21,6t-11,12t-2,10q0,13 38,163t40,163q1,5 1,23q0,39 -24,39q-38,0 -63,-100q-6,-20 -6,-21q-2,-6 -19,-6l-14,0q-6,6 -6,9z" id="svg_21"/>
   <path d="m26,385q-7,7 -7,10q0,4 3,16t5,14q2,5 9,5t51,1l53,0l19,80q3,11 7,29t7,26t6,20t8,17t10,12t14,9t18,2q18,-1 25,-11t7,-19q0,-7 -9,-47t-20,-79l-10,-37q0,-2 50,-2l51,0q7,-7 7,-11q0,-22 -13,-35l-107,0l-36,-145q-39,-160 -39,-172q0,-42 27,-42q35,0 68,34t53,84q2,6 5,7t15,2l4,0q15,0 15,-8q0,-3 -3,-12q-5,-16 -18,-38t-34,-47t-51,-42t-61,-17q-30,0 -57,15t-39,52q-2,8 -2,27l0,18l35,140q35,141 36,142q0,2 -51,2l-51,0z" id="svg_20"/>
   <path d="m84,520q0,8 4,13t8,6l3,1q7,0 154,-69t291,-137l143,-69q7,-5 7,-15t-7,-15q-2,-2 -292,-139l-288,-136l-6,0q-18,2 -18,20q0,1 0,3q-1,7 15,16q19,10 150,72q78,37 130,61l248,118l-248,118q-288,136 -292,141q-2,4 -2,11z" id="svg_33"/>
   <path d="m228,637q-34,0 -36,4q-1,2 -1,8q0,24 11,33q2,1 15,1q54,-3 127,-3q141,0 162,3l12,0q6,-6 6,-9t-2,-18q-5,-15 -9,-19l-38,0q-69,-1 -81,-9q-7,-4 -14,-28t-67,-264q-16,-65 -34,-138t-27,-110l-9,-36q0,-4 9,-4t59,-2l17,0q32,0 51,1t49,7t50,18t44,34t42,55q16,30 30,67t17,42q5,3 17,3l13,0q6,-9 6,-11t-20,-59t-44,-120t-26,-74q-2,-5 -4,-6t-16,-3t-43,-1q-11,0 -76,0t-124,1l-178,0q-84,0 -84,10q0,7 2,14q5,19 10,21q4,1 15,1l6,0q27,0 60,3q14,3 19,12q3,4 72,278t69,289q0,7 -57,9z" id="svg_32"/>
   <path d="m33,157q0,101 76,192t171,92q51,0 90,-49q16,30 46,30q13,0 23,-8t10,-20q0,-13 -37,-160t-38,-166q0,-25 7,-33t21,-9q9,1 20,9q21,20 41,96q6,20 10,21q2,1 10,1l4,0q19,0 19,-9q0,-6 -5,-27t-20,-54t-32,-50q-13,-13 -32,-21q-8,-2 -24,-2q-34,0 -57,15t-30,31l-6,15q-1,1 -4,-1q-2,-2 -4,-4q-59,-56 -120,-56q-55,0 -97,40t-42,127zm318,171q0,6 -5,22t-23,35t-46,20q-35,0 -67,-31t-50,-81q-29,-79 -41,-164q0,-3 0,-11t-1,-12q0,-45 18,-62t43,-18q38,0 75,33t44,51q2,4 27,107t26,111z" id="svg_28"/>
   <path d="m630,29q0,-20 -21,-20q-5,0 -22,16t-94,93l-104,104l-105,-105q-106,-104 -109,-106q-4,-2 -7,-2q-8,0 -14,6t-7,14q0,7 14,22t94,95l104,104l-104,104q-81,81 -94,95t-14,22q0,9 6,14t15,5q5,0 7,-1q3,-2 109,-106l105,-105l104,104q77,77 94,93t22,16q21,0 21,-20q0,-7 -10,-18t-98,-98l-104,-105l104,-105q84,-84 96,-97t12,-19z" id="svg_31"/>
   <path d="m287,628q0,7 -57,9q-23,0 -30,1t-7,9q0,8 4,20t7,15q2,1 199,1q167,-1 187,-1t40,-6q72,-17 122,-79t51,-166q0,-156 -107,-280t-252,-148l-14,-2l-194,-1l-111,0l-53,0q-24,0 -31,2t-8,9q0,2 3,14q4,16 8,18t23,3q27,0 60,3q14,3 19,12q3,4 72,278t69,289zm416,-159q0,38 -11,68t-26,47t-37,29t-39,16t-35,7q-2,0 -14,0t-29,0t-33,1l-43,0q-44,0 -50,-10q-2,-4 -73,-288t-71,-287q0,-4 11,-4t77,-1q5,0 19,0t24,-1q126,0 208,82q36,36 59,84t43,127t20,130z" id="svg_29"/>
   <path d="m21,287q0,14 15,48t48,71t74,36q41,0 66,-23t26,-64q-2,-19 -3,-21q0,-3 -16,-46t-33,-97t-16,-86q0,-43 14,-60t42,-18q23,0 43,11t31,23t27,33q0,1 5,20t14,59t19,74q38,150 42,157q13,27 43,27q13,0 21,-7t11,-12t2,-9q0,-13 -49,-210t-56,-216q-28,-83 -97,-132t-138,-50q-45,0 -79,22t-34,66q0,22 7,37t19,22t20,10t17,3q44,0 44,-42q0,-20 -12,-35t-23,-20t-13,-5l-3,-1q2,-5 19,-12t34,-7l8,0q17,0 26,2q33,9 61,38t43,62t23,56t8,30l-6,-4q-6,-4 -19,-11t-26,-12q-20,-5 -39,-5q-46,0 -81,22t-46,71q-1,7 -1,31q0,57 35,149t35,117q0,1 0,2q0,9 0,12t-4,7t-11,4l-4,0q-23,0 -42,-19t-30,-41t-17,-42t-8,-22q-2,-2 -16,-2l-14,0q-6,6 -6,9z" id="svg_27"/>
   <path d="m118,-162q2,0 6,-2t11,-3t12,-1q13,0 24,13t16,29q10,27 34,153t46,240t22,115l0,3l-47,0q-47,0 -50,2q-4,3 -4,10l7,28q2,5 8,5t47,1q48,0 48,1q0,2 9,50t12,58q37,165 146,165q37,-2 61,-22t24,-53q0,-36 -21,-52t-42,-17q-44,0 -44,42q0,19 11,33t24,21l9,5q-16,6 -30,6q-12,0 -23,-10t-15,-28q-7,-29 -16,-78t-16,-83t-7,-36q0,-2 55,-2q45,0 52,-1t11,-6q1,-4 -2,-17t-5,-16q-2,-5 -9,-5t-54,-1l-56,0l-23,-122q-48,-248 -67,-310q-27,-85 -70,-126q-37,-32 -73,-32q-32,0 -58,19t-26,54q0,37 21,54t42,17q44,0 44,-42q0,-19 -11,-33t-24,-21l-9,-5z" id="svg_30"/>
  </defs>
  <g stroke="null" id="svg_137">
   <g stroke="currentColor" id="svg_36" transform="matrix(0.048480060093191946,0,0,-0.10878087178947053,-370173.08350105,-396793.1127507931) " stroke-width="0" fill="currentColor">
    <g stroke="null" id="svg_37">
     <g stroke="null" id="svg_38">
      <use stroke="#fff" fill="#92949c" x="7635641.50003" y="-3649017.11913" id="svg_39" xlink:href="#svg_34"/>
     </g>
     <g stroke="null" id="svg_40">
      <use stroke="#fff" fill="#92949c" id="svg_41" x="7636345.50003" y="-3649017.11913" xlink:href="#svg_19"/>
     </g>
     <g stroke="null" id="svg_42">
      <use stroke="#fff" fill="#92949c" id="svg_43" x="7636921.50003" y="-3649017.11913" xlink:href="#svg_25"/>
     </g>
     <g stroke="null" id="svg_44">
      <use stroke="#fff" fill="#92949c" id="svg_45" x="7637266.50003" y="-3649017.11913" xlink:href="#svg_26"/>
     </g>
     <g stroke="null" id="svg_46">
      <use stroke="#fff" fill="#92949c" id="svg_47" x="7637735.50003" y="-3649017.11913" xlink:href="#svg_24"/>
     </g>
     <g stroke="null" id="svg_48">
      <use stroke="#fff" fill="#92949c" id="svg_49" x="7637985.50003" y="-3649017.11913" xlink:href="#svg_23"/>
     </g>
     <g stroke="null" id="svg_50">
      <use stroke="#fff" fill="#92949c" id="svg_51" x="7639036.50003" y="-3649017.11913" xlink:href="#svg_22"/>
     </g>
     <g stroke="null" id="svg_52">
      <use stroke="#fff" fill="#92949c" id="svg_53" x="7639521.50003" y="-3649017.11913" xlink:href="#svg_21"/>
     </g>
     <g stroke="null" id="svg_54">
      <use stroke="#fff" fill="#92949c" id="svg_55" x="7640121.50003" y="-3649017.11913" xlink:href="#svg_20"/>
     </g>
     <g stroke="null" id="svg_56">
      <use stroke="#fff" fill="#92949c" id="svg_57" x="7640482.50003" y="-3649017.11913" xlink:href="#svg_19"/>
     </g>
     <g stroke="null" id="svg_58">
      <use stroke="#fff" fill="#92949c" id="svg_59" x="7641336.29983" y="-3649017.11913" xlink:href="#svg_33"/>
     </g>
     <g stroke="null" id="svg_60">
      <use stroke="#fff" fill="#92949c" id="svg_61" x="7642392.10012" y="-3649017.11913" xlink:href="#svg_32"/>
     </g>
     <g stroke="null" id="svg_62">
      <use stroke="#fff" fill="#92949c" id="svg_63" x="7643073.10012" y="-3649017.11913" xlink:href="#svg_28"/>
     </g>
     <g stroke="null" id="svg_64">
      <use stroke="#fff" fill="#92949c" id="svg_65" x="7643602.10012" y="-3649017.11913" xlink:href="#svg_26"/>
     </g>
     <g stroke="null" id="svg_66">
      <use stroke="#fff" fill="#92949c" id="svg_67" x="7644071.09964" y="-3649017.11913" xlink:href="#svg_20"/>
     </g>
     <g stroke="null" id="svg_68">
      <use stroke="#fff" fill="#92949c" id="svg_69" x="7644432.09964" y="-3649017.11913" xlink:href="#svg_24"/>
     </g>
     <g stroke="null" id="svg_70">
      <use stroke="#fff" fill="#92949c" id="svg_71" x="7644682.09964" y="-3649017.11913" xlink:href="#svg_23"/>
     </g>
     <g stroke="null" id="svg_72">
      <use stroke="#fff" fill="#92949c" id="svg_73" x="7645733.09964" y="-3649017.11913" xlink:href="#svg_22"/>
     </g>
     <g stroke="null" id="svg_74">
      <use stroke="#fff" fill="#92949c" id="svg_75" x="7646218.09964" y="-3649017.11913" xlink:href="#svg_21"/>
     </g>
     <g stroke="null" id="svg_76">
      <use stroke="#fff" fill="#92949c" id="svg_77" x="7646818.09964" y="-3649017.11913" xlink:href="#svg_20"/>
     </g>
     <g stroke="null" id="svg_78">
      <use stroke="#fff" fill="#92949c" id="svg_79" x="7647179.09964" y="-3649017.11913" xlink:href="#svg_19"/>
     </g>
     <g stroke="null" id="svg_80">
      <use stroke="#fff" fill="#92949c" id="svg_81" x="7647977.29983" y="-3649017.11913" xlink:href="#svg_31"/>
     </g>
     <g stroke="null" id="svg_82">
      <g stroke="null" id="svg_83">
       <g stroke="null" id="svg_84">
        <g stroke="null" id="svg_85">
         <use stroke="#fff" fill="#92949c" id="svg_86" x="7649387.00003" y="-3648341.11913" xlink:href="#svg_29"/>
        </g>
        <g stroke="null" id="svg_87">
         <use stroke="#fff" fill="#92949c" id="svg_88" x="7650215.00003" y="-3648341.11913" xlink:href="#svg_28"/>
        </g>
        <g stroke="null" id="svg_89">
         <use stroke="#fff" fill="#92949c" id="svg_90" x="7650744.00003" y="-3648341.11913" xlink:href="#svg_27"/>
        </g>
        <g stroke="null" id="svg_91">
         <use stroke="#fff" fill="#92949c" id="svg_92" x="7651234.00003" y="-3648341.11913" xlink:href="#svg_24"/>
        </g>
        <g stroke="null" id="svg_93">
         <use stroke="#fff" fill="#92949c" id="svg_94" x="7651484.00003" y="-3648341.11913" xlink:href="#svg_22"/>
        </g>
        <g stroke="null" id="svg_95">
         <use stroke="#fff" fill="#92949c" id="svg_96" x="7651969.00003" y="-3648341.11913" xlink:href="#svg_30"/>
        </g>
        <g stroke="null" id="svg_97">
         <use stroke="#fff" fill="#92949c" id="svg_98" x="7652519.00003" y="-3648341.11913" xlink:href="#svg_24"/>
        </g>
        <g stroke="null" id="svg_99">
         <use stroke="#fff" fill="#92949c" id="svg_100" x="7652769.00003" y="-3648341.11913" xlink:href="#svg_23"/>
        </g>
        <g stroke="null" id="svg_101">
         <use stroke="#fff" fill="#92949c" id="svg_102" x="7653820.00003" y="-3648341.11913" xlink:href="#svg_22"/>
        </g>
        <g stroke="null" id="svg_103">
         <use stroke="#fff" fill="#92949c" id="svg_104" x="7654305.00003" y="-3648341.11913" xlink:href="#svg_21"/>
        </g>
        <g stroke="null" id="svg_105">
         <use stroke="#fff" fill="#92949c" id="svg_106" x="7654905.00003" y="-3648341.11913" xlink:href="#svg_20"/>
        </g>
        <g stroke="null" id="svg_107">
         <use stroke="#fff" fill="#92949c" id="svg_108" x="7655266.00003" y="-3648341.11913" xlink:href="#svg_19"/>
        </g>
       </g>
       <g stroke="null" id="svg_109">
        <g stroke="null" id="svg_110">
         <use stroke="#fff" fill="#92949c" id="svg_111" x="7649197.50003" y="-3649703.11913" xlink:href="#svg_29"/>
        </g>
        <g stroke="null" id="svg_112">
         <use stroke="#fff" fill="#92949c" id="svg_113" x="7650025.50003" y="-3649703.11913" xlink:href="#svg_28"/>
        </g>
        <g stroke="null" id="svg_114">
         <use stroke="#fff" fill="#92949c" id="svg_115" x="7650554.50003" y="-3649703.11913" xlink:href="#svg_27"/>
        </g>
        <g stroke="null" id="svg_116">
         <use stroke="#fff" fill="#92949c" id="svg_117" x="7651044.50003" y="-3649703.11913" xlink:href="#svg_26"/>
        </g>
        <g stroke="null" id="svg_118">
         <use stroke="#fff" fill="#92949c" id="svg_119" x="7651513.50003" y="-3649703.11913" xlink:href="#svg_24"/>
        </g>
        <g stroke="null" id="svg_120">
         <use stroke="#fff" fill="#92949c" id="svg_121" x="7651763.50003" y="-3649703.11913" xlink:href="#svg_25"/>
        </g>
        <g stroke="null" id="svg_122">
         <use stroke="#fff" fill="#92949c" id="svg_123" x="7652108.50003" y="-3649703.11913" xlink:href="#svg_21"/>
        </g>
        <g stroke="null" id="svg_124">
         <use stroke="#fff" fill="#92949c" id="svg_125" x="7652708.50003" y="-3649703.11913" xlink:href="#svg_24"/>
        </g>
        <g stroke="null" id="svg_126">
         <use stroke="#fff" fill="#92949c" id="svg_127" x="7652958.50003" y="-3649703.11913" xlink:href="#svg_23"/>
        </g>
        <g stroke="null" id="svg_128">
         <use stroke="#fff" fill="#92949c" id="svg_129" x="7654009.50003" y="-3649703.11913" xlink:href="#svg_22"/>
        </g>
        <g stroke="null" id="svg_130">
         <use stroke="#fff" fill="#92949c" id="svg_131" x="7654494.50003" y="-3649703.11913" xlink:href="#svg_21"/>
        </g>
        <g stroke="null" id="svg_132">
         <use stroke="#fff" fill="#92949c" id="svg_133" x="7655094.50003" y="-3649703.11913" xlink:href="#svg_20"/>
        </g>
        <g stroke="null" id="svg_134">
         <use stroke="#fff" fill="#92949c" id="svg_135" x="7655455.50003" y="-3649703.11913" xlink:href="#svg_19"/>
        </g>
       </g>
       <rect stroke="#fff" fill="#92949c" id="svg_136" y="-3648797.11913" x="7649097.50003" height="60" width="7034"/>
      </g>
     </g>
    </g>
   </g>
  </g>
 </g>
</svg>