<svg width="100" height="50" xmlns="http://www.w3.org/2000/svg" xmlns:xlink="http://www.w3.org/1999/xlink">
 <!-- Created with Method Draw - http://github.com/duopixel/Method-Draw/ -->

 <g>
  <title>background</title>
  <rect fill="none" id="canvas_background" height="52" width="102" y="-1" x="-1"/>
  <g display="none" overflow="visible" y="0" x="0" height="100%" width="100%" id="canvasGrid">
   <rect fill="url(#gridpattern)" stroke-width="0" y="0" x="0" height="100%" width="100%"/>
  </g>
 </g>
 <g>
  <title>Layer 1</title>
  <defs>
   <path d="m308,24q59,0 108,52t50,121q0,63 -52,87q-106,27 -136,37t-42,20q-60,42 -60,121q0,61 32,111t65,75q29,25 70,40t64,16l11,0l7,0q96,0 139,-64q1,0 13,13t26,29t20,22q1,0 4,0t5,1q13,0 13,-7t-28,-121t-32,-118t-16,-3q-20,0 -20,9q0,6 1,10q0,3 1,19t2,26q0,34 -9,59t-18,37t-25,25q-36,21 -82,21q-57,0 -106,-46t-50,-106q0,-30 15,-52t41,-31q4,-2 70,-19t67,-18q34,-11 66,-48t32,-100q0,-26 -8,-56q-5,-22 -18,-49t-36,-59t-66,-60t-94,-38q-12,-2 -34,-2q-99,0 -154,55l-10,11l-28,-31q-23,-27 -28,-31t-13,-4q-13,0 -13,8q0,3 58,235q2,6 20,6l13,0q6,-6 6,-11q0,-2 -1,-9t-4,-21t-2,-33q2,-39 18,-66t43,-40t52,-18t53,-5z" id="svg_38"/>
   <path d="m184,600q0,24 19,42t44,19q18,0 30,-12t13,-30q0,-23 -20,-42t-44,-20q-15,0 -28,10t-14,33zm-163,-313q0,8 9,31t24,51t44,51t60,22q39,0 65,-23t27,-62q0,-17 -14,-56t-40,-105t-42,-113q-5,-22 -5,-32q0,-25 17,-25q9,0 19,3t23,14t27,35t25,59q3,12 5,14t17,2q20,0 20,-10q0,-8 -9,-31t-25,-51t-45,-50t-62,-22q-32,0 -59,21t-28,64q0,17 5,32t43,114q38,101 44,121t7,39q0,24 -17,24l-2,0q-30,0 -55,-33t-38,-84q-1,-1 -2,-3t-1,-3t-2,-2t-3,-1t-4,0t-8,0l-14,0q-6,6 -6,9z" id="svg_24"/>
   <path d="m311,43q-15,-13 -44,-28t-61,-15q-63,0 -101,45t-39,115q0,105 77,193t171,89q47,0 87,-48l3,4q2,3 5,6t9,8t13,7t16,3q14,0 23,-9t10,-19q0,-15 -57,-242t-60,-232q-18,-54 -77,-89t-135,-36q-141,0 -141,68q0,26 18,46t46,20q15,0 28,-9t14,-31q0,-10 -2,-19t-7,-14t-8,-10t-7,-8l-2,-2l1,0q10,-3 60,-3q38,0 60,12q23,11 43,33t28,47q6,19 16,62q13,48 13,56zm73,285l-4,11q-3,11 -5,15t-6,14t-10,14t-13,11t-18,9t-22,3q-44,0 -85,-53q-30,-39 -50,-119t-20,-116q0,-79 62,-79q56,0 110,70l8,10l53,210z" id="svg_37"/>
   <path d="m21,287q1,6 3,16t12,38t20,47t33,37t46,17q36,0 60,-18t30,-34t6,-21q0,-2 1,-2l11,11q61,64 139,64q54,0 87,-27t34,-79t-38,-157t-38,-127q0,-26 17,-26q6,0 9,1q29,5 52,38t35,80q2,8 20,8q20,0 20,-8q0,-1 -4,-15q-8,-29 -22,-57t-46,-56t-69,-27q-47,0 -68,27t-21,56q0,19 36,120t37,152q0,59 -44,59l-5,0q-86,0 -145,-101l-7,-12l-33,-134q-33,-131 -38,-141q-13,-27 -43,-27q-13,0 -21,6t-11,12t-2,10q0,13 38,163t40,163q1,5 1,23q0,39 -24,39q-38,0 -63,-100q-6,-20 -6,-21q-2,-6 -19,-6l-14,0q-6,6 -6,9z" id="svg_33"/>
   <path d="m39,168q0,57 19,104t49,78t67,52t70,31t63,9l3,0q45,0 78,-22t33,-65q0,-90 -111,-118q-49,-13 -134,-14q-37,0 -38,-2q0,-2 -6,-35t-7,-58q0,-47 21,-74t63,-28t93,19t92,66q9,10 12,10q4,0 13,-9t10,-14t-9,-16t-30,-27t-46,-31t-63,-25t-76,-10q-79,0 -122,53t-44,126zm334,185q-6,52 -68,52q-33,0 -61,-14t-45,-34t-29,-41t-16,-36t-5,-19q0,-1 20,-1q113,0 158,24t46,69z" id="svg_36"/>
   <path d="m366,683q1,0 72,5t73,6q12,0 12,-8q0,-7 -73,-302t-75,-301t-1,-15q0,-42 28,-42q9,1 20,9q21,20 41,96q6,20 10,21q2,1 10,1l4,0l4,0q15,0 15,-8q0,-5 -3,-16q-13,-50 -30,-81t-28,-40t-28,-16q-8,-2 -24,-2q-34,0 -57,15t-30,31l-6,15q-1,1 -4,-1q-2,-2 -4,-4q-59,-56 -120,-56q-55,0 -97,40t-42,127q0,48 20,98t48,86q47,57 94,79t85,22q56,0 84,-42q5,-6 5,-4q1,4 27,109t28,111q0,13 -7,16t-39,5l-21,0q-6,6 -6,8t2,19q5,19 13,19zm-14,-357q-23,79 -75,79q-35,0 -67,-31t-50,-81q-29,-79 -41,-164q0,-3 0,-11t-1,-12q0,-45 18,-62t43,-18q54,0 111,72l8,11l54,217z" id="svg_35"/>
   <path id="svg_29"/>
   <path d="m43,1q-17,0 -17,9q0,2 3,14q5,19 10,21q3,1 15,1l6,0q60,0 76,7q1,0 2,1q5,2 11,23t49,196q12,45 18,71q70,280 70,282q-2,4 -2,5q-10,6 -71,6l-20,0q-9,6 -4,25q4,15 6,18t14,3l4,0q72,-2 146,-2q122,0 128,2l10,0q7,-7 7,-11t-3,-17t-7,-16q-3,-2 -23,-2q-31,0 -64,-3q-14,-3 -19,-11q-7,-14 -51,-191q-11,-47 -22,-91q-70,-276 -70,-282q0,-7 10,-9t52,-4l32,0q6,-8 6,-9t-3,-18q-4,-13 -10,-19l-16,0q-37,2 -137,2q-36,0 -66,0t-48,0t-22,-1z" id="svg_34"/>
   <path d="m40,437q-19,0 -19,8q0,5 16,56t34,101l17,49q5,18 13,26l468,0l90,0q32,0 38,-1t7,-9q0,-6 -17,-114t-19,-109q0,-7 -19,-7q-9,0 -12,0t-6,5l-2,3q0,6 6,45t6,61q0,35 -13,53t-55,25q-5,1 -58,2q-46,0 -58,-1t-18,-8q-1,-1 -71,-279t-70,-283q0,-12 88,-14q32,0 41,-1t9,-9q0,-5 -3,-14q-4,-18 -9,-21l-2,-1q-3,0 -7,0q-5,0 -52,1t-135,1q-129,0 -164,-2l-15,0q-6,6 -6,9t2,18q4,13 10,19l28,0l11,0q80,0 95,9q1,1 2,1q5,3 10,20t40,157q17,68 28,111q70,275 70,281q0,5 -29,5l-31,0q-67,0 -88,-6q-45,-10 -70,-41t-54,-116q-7,-22 -10,-26t-14,-4l-3,0z" id="svg_32"/>
   <path d="m201,-11q-75,0 -121,49t-46,118q0,65 30,123t82,101q76,61 155,61q32,0 40,-1q13,-3 26,-7t35,-16t36,-30t26,-49t12,-70q0,-107 -86,-193t-189,-86zm-80,131q0,-50 26,-72t59,-22q44,0 83,32t62,84q9,21 23,74t14,92q0,44 -18,67q-24,30 -64,30q-63,0 -111,-58q-37,-44 -55,-117t-19,-110z" id="svg_31"/>
   <path d="m26,385q-7,7 -7,10q0,4 3,16t5,14q2,5 9,5t51,1l53,0l19,80q3,11 7,29t7,26t6,20t8,17t10,12t14,9t18,2q18,-1 25,-11t7,-19q0,-7 -9,-47t-20,-79l-10,-37q0,-2 50,-2l51,0q7,-7 7,-11q0,-22 -13,-35l-107,0l-36,-145q-39,-160 -39,-172q0,-42 27,-42q35,0 68,34t53,84q2,6 5,7t15,2l4,0q15,0 15,-8q0,-3 -3,-12q-5,-16 -18,-38t-34,-47t-51,-42t-61,-17q-30,0 -57,15t-39,52q-2,8 -2,27l0,18l35,140q35,141 36,142q0,2 -51,2l-51,0z" id="svg_23"/>
   <path d="m33,157q0,101 76,192t171,92q51,0 90,-49q16,30 46,30q13,0 23,-8t10,-20q0,-13 -37,-160t-38,-166q0,-25 7,-33t21,-9q9,1 20,9q21,20 41,96q6,20 10,21q2,1 10,1l4,0q19,0 19,-9q0,-6 -5,-27t-20,-54t-32,-50q-13,-13 -32,-21q-8,-2 -24,-2q-34,0 -57,15t-30,31l-6,15q-1,1 -4,-1q-2,-2 -4,-4q-59,-56 -120,-56q-55,0 -97,40t-42,127zm318,171q0,6 -5,22t-23,35t-46,20q-35,0 -67,-31t-50,-81q-29,-79 -41,-164q0,-3 0,-11t-1,-12q0,-45 18,-62t43,-18q38,0 75,33t44,51q2,4 27,107t26,111z" id="svg_26"/>
   <path d="m117,59q0,-33 25,-33q37,0 63,105q6,20 10,21q2,1 10,1l4,0q9,0 12,0t5,-2t2,-7q-1,-6 -3,-16t-11,-38t-20,-47t-31,-37t-46,-17q-36,0 -67,22t-32,74q0,12 1,17l65,258q63,255 63,263q0,3 -1,5t-4,4t-5,2t-8,1t-8,1t-9,1t-10,0q-10,0 -13,0t-8,1t-6,3t-1,6q0,2 2,14q5,19 11,21t72,6q15,1 34,2t30,3t11,1q12,0 12,-8q0,-11 -73,-300t-75,-303q0,-2 0,-8t-1,-10l0,-6z" id="svg_30"/>
   <path d="m50,252q0,115 67,221t169,168t204,63q90,0 143,-51q9,-10 15,-17t8,-10l1,-3q3,0 27,26q7,6 15,14t16,16t10,11l15,15l6,0q14,0 14,-7q0,-4 -32,-137q-36,-139 -36,-140q-2,-5 -5,-6t-18,-2l-16,0q-6,6 -6,9q0,1 1,7t2,20t1,32q0,71 -32,124t-109,54q-26,0 -56,-7t-72,-24t-83,-56t-73,-93q-32,-57 -51,-133t-19,-124q0,-114 76,-164q48,-34 118,-34q91,0 162,68t94,148q4,13 6,15t16,2q20,0 20,-9q0,-5 -1,-9q-29,-107 -124,-184t-204,-77q-113,0 -191,75t-78,199z" id="svg_28"/>
   <path d="m23,287q1,3 2,8t5,22t10,31t15,33t20,30t26,22t33,9q75,0 96,-64l10,9q62,55 118,55q65,0 102,-47t37,-114q0,-108 -76,-199t-172,-92q-22,0 -39,6q-11,5 -23,15t-19,17l-7,8q-1,-1 -22,-87t-21,-87q0,-6 8,-7t37,-3l25,0q6,-7 6,-9t-3,-18q-3,-12 -6,-15t-13,-4q-2,0 -11,0t-34,1t-62,1q-70,0 -89,-2l-8,0q-7,7 -7,11q2,27 13,35l20,0q34,1 39,12q3,6 61,239t61,247q1,5 1,14q0,41 -25,41q-22,0 -37,-28t-23,-61t-12,-36q-2,-2 -16,-2l-14,0q-6,6 -6,9zm155,-185q22,-76 74,-76q30,0 58,23t46,58q18,34 36,108t19,110l0,6q0,74 -61,74q-11,0 -22,-3t-22,-9t-20,-13t-17,-15t-15,-15t-11,-14t-8,-10l-3,-4q0,-1 -3,-14t-11,-44t-14,-52q-26,-106 -26,-110z" id="svg_27"/>
   <path d="m34,159q0,109 86,196t186,87q56,0 88,-24t33,-63q0,-29 -19,-49t-48,-21q-19,0 -30,10t-11,30t11,34t22,21t14,6l1,0q0,2 -6,6t-21,8t-34,4q-30,0 -57,-14q-21,-9 -43,-31q-44,-44 -64,-124t-21,-116q0,-46 26,-69q22,-24 58,-24l4,0q112,0 185,85q9,10 12,10q4,0 13,-9t10,-14t-9,-15t-29,-28t-45,-30t-64,-25t-80,-11q-75,0 -121,48t-47,122z" id="svg_25"/>
   <path d="m21,287q0,14 15,48t48,71t74,36q41,0 66,-23t26,-64q-2,-19 -3,-21q0,-3 -16,-46t-33,-97t-16,-86q0,-43 14,-60t42,-18q23,0 43,11t31,23t27,33q0,1 5,20t14,59t19,74q38,150 42,157q13,27 43,27q13,0 21,-7t11,-12t2,-9q0,-13 -49,-210t-56,-216q-28,-83 -97,-132t-138,-50q-45,0 -79,22t-34,66q0,22 7,37t19,22t20,10t17,3q44,0 44,-42q0,-20 -12,-35t-23,-20t-13,-5l-3,-1q2,-5 19,-12t34,-7l8,0q17,0 26,2q33,9 61,38t43,62t23,56t8,30l-6,-4q-6,-4 -19,-11t-26,-12q-20,-5 -39,-5q-46,0 -81,22t-46,71q-1,7 -1,31q0,57 35,149t35,117q0,1 0,2q0,9 0,12t-4,7t-11,4l-4,0q-23,0 -42,-19t-30,-41t-17,-42t-8,-22q-2,-2 -16,-2l-14,0q-6,6 -6,9z" id="svg_22"/>
   <path d="m465,605q-37,0 -71,9t-54,18t-21,9q13,-33 13,-93q0,-90 -39,-145t-91,-56q-57,0 -101,55t-45,146q0,89 45,145t101,57q39,0 70,-31q87,-77 192,-77q116,0 186,90q12,16 18,17q2,1 5,1q9,0 15,-7t5,-17q-515,-773 -523,-778q-4,-4 -10,-4q-13,0 -18,11q-5,9 0,18q1,3 221,331q106,158 162,242t56,84q-53,-25 -116,-25zm-258,-220q28,0 56,42t29,121q0,69 -25,116t-67,48q-7,0 -14,-3t-19,-11t-20,-30t-13,-53q-2,-20 -2,-67l0,-21q0,-91 33,-124q18,-18 38,-18l4,0zm293,-239q0,88 44,144t103,57q52,0 90,-55t39,-146t-39,-146t-91,-56q-56,0 -101,56t-45,146zm151,-164q28,0 56,42t29,122q0,69 -25,116t-67,47q-7,0 -14,-3t-19,-11t-20,-30t-13,-53q-1,-12 -1,-66l0,-22q0,-142 70,-142l4,0z" id="svg_21"/>
  </defs>
  <g fill="none" id="svg_94">
   <g stroke="currentColor" id="svg_40" transform="matrix(0.012992430044733742,0,0,-0.02153811679731398,-142415.50363280848,-104101.29674818131) " stroke-width="0" fill="currentColor">
    <g stroke="null" id="svg_41">
     <g stroke="null" id="svg_42">
      <g stroke="null" id="svg_43">
       <g stroke="null" id="svg_44">
        <use fill="#92949c" stroke="null" id="svg_45" x="10962610.5" y="-4834088.5" xlink:href="#svg_38"/>
       </g>
       <g stroke="null" id="svg_46">
        <use fill="#92949c" stroke="null" id="svg_47" x="10963223.5" y="-4834088.5" xlink:href="#svg_24"/>
       </g>
       <g stroke="null" id="svg_48">
        <use fill="#92949c" stroke="null" id="svg_49" x="10963568.5" y="-4834088.5" xlink:href="#svg_37"/>
       </g>
       <g stroke="null" id="svg_50">
        <use fill="#92949c" stroke="null" id="svg_51" x="10964045.5" y="-4834088.5" xlink:href="#svg_33"/>
       </g>
       <g stroke="null" id="svg_52">
        <use fill="#92949c" stroke="null" id="svg_53" x="10964645.5" y="-4834088.5" xlink:href="#svg_36"/>
       </g>
       <g stroke="null" id="svg_54">
        <use fill="#92949c" stroke="null" id="svg_55" x="10965111.5" y="-4834088.5" xlink:href="#svg_35"/>
       </g>
       <g stroke="null" id="svg_56">
        <use fill="#92949c" stroke="null" id="svg_57" x="10965631.5" y="-4834088.5" xlink:href="#svg_29"/>
       </g>
       <g stroke="null" id="svg_58">
        <use fill="#92949c" stroke="null" id="svg_59" x="10965881.5" y="-4834088.5" xlink:href="#svg_34"/>
       </g>
       <g stroke="null" id="svg_60">
        <use fill="#92949c" stroke="null" id="svg_61" x="10966385.5" y="-4834088.5" xlink:href="#svg_33"/>
       </g>
      </g>
      <g stroke="null" id="svg_62">
       <g stroke="null" id="svg_63">
        <use fill="#92949c" stroke="null" id="svg_64" x="10961532" y="-4835450.5" xlink:href="#svg_32"/>
       </g>
       <g stroke="null" id="svg_65">
        <use fill="#92949c" stroke="null" id="svg_66" x="10962236" y="-4835450.5" xlink:href="#svg_31"/>
       </g>
       <g stroke="null" id="svg_67">
        <use fill="#92949c" stroke="null" id="svg_68" x="10962721" y="-4835450.5" xlink:href="#svg_23"/>
       </g>
       <g stroke="null" id="svg_69">
        <use fill="#92949c" stroke="null" id="svg_70" x="10963082" y="-4835450.5" xlink:href="#svg_26"/>
       </g>
       <g stroke="null" id="svg_71">
        <use fill="#92949c" stroke="null" id="svg_72" x="10963611" y="-4835450.5" xlink:href="#svg_30"/>
       </g>
       <g stroke="null" id="svg_73">
        <use fill="#92949c" stroke="null" id="svg_74" x="10963909" y="-4835450.5" xlink:href="#svg_29"/>
       </g>
       <g stroke="null" id="svg_75">
        <use fill="#92949c" stroke="null" id="svg_76" x="10964159" y="-4835450.5" xlink:href="#svg_28"/>
       </g>
       <g stroke="null" id="svg_77">
        <use fill="#92949c" stroke="null" id="svg_78" x="10964874" y="-4835450.5" xlink:href="#svg_26"/>
       </g>
       <g stroke="null" id="svg_79">
        <use fill="#92949c" stroke="null" id="svg_80" x="10965403" y="-4835450.5" xlink:href="#svg_27"/>
       </g>
       <g stroke="null" id="svg_81">
        <use fill="#92949c" stroke="null" id="svg_82" x="10965906" y="-4835450.5" xlink:href="#svg_26"/>
       </g>
       <g stroke="null" id="svg_83">
        <use fill="#92949c" stroke="null" id="svg_84" x="10966435" y="-4835450.5" xlink:href="#svg_25"/>
       </g>
       <g stroke="null" id="svg_85">
        <use fill="#92949c" stroke="null" id="svg_86" x="10966868" y="-4835450.5" xlink:href="#svg_24"/>
       </g>
       <g stroke="null" id="svg_87">
        <use fill="#92949c" stroke="null" id="svg_88" x="10967213" y="-4835450.5" xlink:href="#svg_23"/>
       </g>
       <g stroke="null" id="svg_89">
        <use fill="#92949c" stroke="null" id="svg_90" x="10967574" y="-4835450.5" xlink:href="#svg_22"/>
       </g>
      </g>
      <rect fill="#92949c" stroke="null" id="svg_91" y="-4834544.5" x="10961432" height="60" width="6732"/>
     </g>
     <g stroke="null" id="svg_92">
      <use fill="#92949c" stroke="null" id="svg_93" x="10968284" y="-4834764.5" xlink:href="#svg_21"/>
     </g>
    </g>
   </g>
  </g>
 </g>
</svg>